<svg width="30" height="30" viewBox="0 0 30 30" fill="none" xmlns="http://www.w3.org/2000/svg">
<path d="M29.2263 25.2763H28.6816V1.77618C28.6816 1.34877 28.3352 1.00244 27.9078 1.00244C27.4804 1.00244 27.1341 1.34877 27.1341 1.77618V3.94713H16.5534V3.47345C16.5534 2.59882 15.8418 1.88729 14.9672 1.88729H14.862C13.9873 1.88729 13.2758 2.59882 13.2758 3.47345V3.94713H11.6005V3.47345C11.6005 2.59882 10.889 1.88729 10.0143 1.88729H9.90896C9.03432 1.88729 8.32279 2.59882 8.32279 3.47345V3.94713H7.73073V3.47345C7.73073 2.59882 7.0192 1.88729 6.14457 1.88729H6.03918C5.16455 1.88729 4.45302 2.59882 4.45302 3.47345V3.94713H2.86577V1.77618C2.86577 1.34877 2.51945 1.00244 2.09203 1.00244C1.66462 1.00244 1.3183 1.34877 1.3183 1.77618V25.2763H0.773738C0.346325 25.2763 0 25.6226 0 26.0501V28.2238C0 28.6512 0.346325 28.9975 0.773738 28.9975H29.2263C29.6537 28.9975 30 28.6512 30 28.2238V26.0501C30 25.6228 29.6537 25.2763 29.2263 25.2763ZM6.03918 7.55446H6.14457C7.0192 7.55446 7.73073 6.84293 7.73073 5.96829V5.49461H8.32279V5.96829C8.32279 6.84293 9.03432 7.55446 9.90896 7.55446H10.0143C10.889 7.55446 11.6005 6.84293 11.6005 5.96829V5.49461H13.2758V5.96829C13.2758 6.84293 13.9873 7.55446 14.862 7.55446H14.9673C15.842 7.55446 16.5535 6.84293 16.5535 5.96829V5.49461H27.1342V10.3931H25.3797V9.91947C25.3797 9.04483 24.6682 8.3333 23.7935 8.3333H23.6882C22.8135 8.3333 22.102 9.04483 22.102 9.91947V10.3931H20.7009V9.91947C20.7009 9.04483 19.9894 8.3333 19.1147 8.3333H19.0094C18.1347 8.3333 17.4232 9.04483 17.4232 9.91947V10.3931H2.86577V5.49461H4.45317V5.96829C4.45302 6.84293 5.16455 7.55446 6.03918 7.55446ZM19.1147 15.708H19.0094C18.1347 15.708 17.4232 16.4195 17.4232 17.2941V17.7678H14.5418V17.2941C14.5418 16.4195 13.8303 15.708 12.9556 15.708H12.8502C11.9756 15.708 11.2641 16.4195 11.2641 17.2941V17.7678H10.672V17.2941C10.672 16.4195 9.96049 15.708 9.08585 15.708H8.98047C8.10584 15.708 7.39431 16.4195 7.39431 17.2941V17.7678H6.95699V17.2941C6.95699 16.4195 6.24546 15.708 5.37083 15.708H5.26544C4.39081 15.708 3.67928 16.4195 3.67928 17.2941V17.7678H2.86562V11.9408H17.4232V12.4145C17.4232 13.2891 18.1347 14.0006 19.0094 14.0006H19.1147C19.9894 14.0006 20.7009 13.2891 20.7009 12.4145V11.9408H22.102V12.4145C22.102 13.2891 22.8135 14.0006 23.6882 14.0006H23.7935C24.6682 14.0006 25.3797 13.2891 25.3797 12.4145V11.9408H27.1342V17.7678H20.7011V17.2941C20.7009 16.4195 19.9895 15.708 19.1147 15.708ZM2.86577 19.3153H3.67944V19.789C3.67944 20.6636 4.39096 21.3751 5.2656 21.3751H5.37098C6.24562 21.3751 6.95715 20.6636 6.95715 19.789V19.3153H7.39446V19.789C7.39446 20.6636 8.10599 21.3751 8.98063 21.3751H9.08601C9.96064 21.3751 10.6722 20.6636 10.6722 19.789V19.3153H11.2642V19.789C11.2642 20.6636 11.9758 21.3751 12.8504 21.3751H12.9558C13.8304 21.3751 14.5419 20.6636 14.5419 19.789V19.3153H17.4235V19.789C17.4235 20.6636 18.135 21.3751 19.0097 21.3751H19.1151C19.9897 21.3751 20.7012 20.6636 20.7012 19.789V19.3153H27.1344V25.2763H2.86577V19.3153Z" fill="#333333"/>
</svg>
