<svg width="30" height="30" viewBox="0 0 30 30" fill="none" xmlns="http://www.w3.org/2000/svg">
<path d="M12.3633 15.8789H17.6367V17.6367H12.3633V15.8789Z" fill="#333333"/>
<path d="M24.3386 17.6367H19.3945V18.5156C19.3945 19.0013 19.0013 19.3945 18.5156 19.3945H11.4844C10.9987 19.3945 10.6055 19.0013 10.6055 18.5156V17.6367H5.66139C4.52499 17.6367 3.51997 16.9123 3.16017 15.8343L0 6.35217V25.5469C0 27.0007 1.18286 28.1836 2.63672 28.1836H27.3633C28.8171 28.1836 30 27.0007 30 25.5469V6.35286L26.8396 15.8343C26.48 16.9123 25.475 17.6367 24.3386 17.6367Z" fill="#333333"/>
<path d="M18.5156 1.81641H11.4844C10.0305 1.81641 8.84766 2.99927 8.84766 4.45312V5.33203H1.51222L4.82712 15.2781C4.94728 15.6377 5.28282 15.8789 5.66139 15.8789H10.6055V15C10.6055 14.5143 10.9987 14.1211 11.4844 14.1211H18.5156C19.0013 14.1211 19.3945 14.5143 19.3945 15V15.8789H24.3386C24.7172 15.8789 25.0527 15.6377 25.1729 15.2781L28.488 5.33203H21.1523V4.45312C21.1523 2.99927 19.9695 1.81641 18.5156 1.81641ZM10.6055 5.33203V4.45312C10.6055 3.96812 10.9994 3.57422 11.4844 3.57422H18.5156C19.0006 3.57422 19.3945 3.96812 19.3945 4.45312V5.33203H10.6055Z" fill="#333333"/>
</svg>
