<svg width="24" height="24" viewBox="0 0 24 24" fill="none" xmlns="http://www.w3.org/2000/svg">
<g clip-path="url(#clip0_1_251)">
<path d="M22.8991 21.813H1.0907C0.48816 21.813 0 22.3011 0 22.9042C0 23.5062 0.48816 23.9944 1.0907 23.9944H22.8986C23.5011 23.9944 23.9893 23.5062 23.9893 22.9042C23.9888 22.3011 23.5006 21.813 22.8991 21.813Z" fill="#A0CD4E"/>
<path d="M2.45355 18.9775C1.85101 18.9775 1.36285 19.4656 1.36285 20.0682C1.36285 20.6707 1.85101 21.1594 2.45355 21.1594H21.5357C22.1382 21.1594 22.6264 20.6707 22.6264 20.0682C22.6264 19.4656 22.1382 18.9775 21.5357 18.9775H21.2635V9.1632H21.5357C21.8375 9.1632 22.0805 8.91912 22.0805 8.61836C22.0805 8.3176 21.8365 8.07352 21.5357 8.07352H2.45355C2.15228 8.07352 1.90871 8.3176 1.90871 8.61836C1.90871 8.91912 2.15279 9.1632 2.45355 9.1632H2.72623V18.9769H2.45355V18.9775ZM19.0821 9.1632V18.9769H15.8111V9.1632H19.0821ZM13.6297 9.1632V18.9769H10.3586V9.1632H13.6297ZM4.90661 9.1632H8.17769V18.9769H4.90661V9.1632Z" fill="#A0CD4E"/>
<path d="M1.09068 7.09314H22.8986C22.9021 7.09314 22.9062 7.09314 22.9093 7.09314C23.5123 7.09314 24 6.60498 24 6.00244C24 5.52347 23.6916 5.11753 23.2631 4.97047L12.4429 0.101633C12.1585 -0.0260243 11.8333 -0.0260243 11.5483 0.101633L0.643366 5.00825C0.174099 5.21965 -0.083768 5.72926 0.0244851 6.23172C0.132227 6.73417 0.576473 7.09314 1.09068 7.09314Z" fill="#A0CD4E"/>
</g>
<defs>
<clipPath id="clip0_1_251">
<rect width="24" height="24" fill="white"/>
</clipPath>
</defs>
</svg>
