<svg width="30" height="30" viewBox="0 0 30 30" fill="none" xmlns="http://www.w3.org/2000/svg">
<path d="M25.2281 0H4.77319C4.02 0 3.40979 0.610838 3.40979 1.36401V28.636C3.40979 29.3892 4.02064 30 4.77319 30H25.2281C25.9813 30 26.5915 29.3892 26.5915 28.636V1.36401C26.5915 0.610838 25.9813 0 25.2281 0ZM23.864 2.72675V6.81751H6.1366V2.72675H23.864ZM6.1366 27.2733V9.5449H23.864V27.2713H6.1366V27.2733Z" fill="#333333"/>
<path d="M11.0126 10.7512H8.1817C7.80511 10.7512 7.5 11.057 7.5 11.4329V14.2656C7.5 14.6422 7.80574 14.9473 8.1817 14.9473H11.0126C11.3891 14.9473 11.6943 14.6416 11.6943 14.2656V11.4329C11.6949 11.0557 11.3904 10.7512 11.0126 10.7512Z" fill="#333333"/>
<path d="M16.4151 10.7512H13.5849C13.2083 10.7512 12.9032 11.057 12.9032 11.4329V14.2656C12.9032 14.6422 13.2083 14.9473 13.5849 14.9473H16.4151C16.7917 14.9473 17.0968 14.6416 17.0968 14.2656V11.4329C17.0975 11.0557 16.7917 10.7512 16.4151 10.7512Z" fill="#333333"/>
<path d="M21.8183 10.7512H18.9875C18.6109 10.7512 18.3064 11.057 18.3064 11.4329V14.2656C18.3064 14.6422 18.6115 14.9473 18.9875 14.9473H21.8183C22.1949 14.9473 22.5 14.6416 22.5 14.2656V11.4329C22.5 11.0557 22.1949 10.7512 21.8183 10.7512Z" fill="#333333"/>
<path d="M11.0126 16.3114H8.1817C7.80511 16.3114 7.5 16.6165 7.5 16.9925V19.8252C7.5 20.2017 7.80574 20.5062 8.1817 20.5062H11.0126C11.3891 20.5062 11.6943 20.2011 11.6943 19.8252V16.9925C11.6949 16.6152 11.3904 16.3114 11.0126 16.3114Z" fill="#333333"/>
<path d="M16.4151 16.3114H13.5849C13.2083 16.3114 12.9032 16.6165 12.9032 16.9925V19.8252C12.9032 20.2017 13.2083 20.5062 13.5849 20.5062H16.4151C16.7917 20.5062 17.0968 20.2011 17.0968 19.8252V16.9925C17.0975 16.6152 16.7917 16.3114 16.4151 16.3114Z" fill="#333333"/>
<path d="M11.0126 21.8715H8.1817C7.80511 21.8715 7.5 22.1766 7.5 22.5519V25.3846C7.5 25.7624 7.80574 26.0663 8.1817 26.0663H11.0126C11.3891 26.0663 11.6943 25.7605 11.6943 25.3846V22.5519C11.6949 22.1753 11.3904 21.8715 11.0126 21.8715Z" fill="#333333"/>
<path d="M16.4151 21.8715H13.5849C13.2083 21.8715 12.9032 22.1766 12.9032 22.5519V25.3846C12.9032 25.7624 13.2083 26.0663 13.5849 26.0663H16.4151C16.7917 26.0663 17.0968 25.7605 17.0968 25.3846V22.5519C17.0975 22.1753 16.7917 21.8715 16.4151 21.8715Z" fill="#333333"/>
<path d="M21.8183 16.3114H18.9875C18.6109 16.3114 18.3064 16.6165 18.3064 16.9925V25.3846C18.3064 25.7625 18.6115 26.0663 18.9875 26.0663H21.8183C22.1949 26.0663 22.5 25.7606 22.5 25.3846V16.9925C22.5 16.6152 22.1949 16.3114 21.8183 16.3114Z" fill="#333333"/>
</svg>
