<svg width="30" height="30" viewBox="0 0 30 30" fill="none" xmlns="http://www.w3.org/2000/svg">
<g clip-path="url(#clip0_1_104)">
<path d="M5.19971 12.6923V15H17.5829L19.0459 13.5371V12.6923H5.19971Z" fill="#333333"/>
<path d="M5.19971 17.3076V19.6153H12.9673L15.2751 17.3076H5.19971Z" fill="#333333"/>
<path d="M12.1229 21.9229H5.1998V24.2305H12.1229V21.9229Z" fill="#333333"/>
<path d="M29.0778 10.0318L27.4459 8.40003C26.9956 7.94967 26.2646 7.94967 25.8143 8.40003C25.3794 8.83488 24.98 9.23426 24.5972 9.61712L27.8608 12.8807C28.2466 12.4949 28.6469 12.0945 29.0778 11.6636C29.5283 11.2132 29.5283 10.4822 29.0778 10.0318Z" fill="#333333"/>
<path d="M23.7834 10.4351C19.6418 14.5768 18.4212 15.7931 13.2766 20.9378C13.2766 22.9345 13.2766 22.5018 13.2766 24.2308C16.0544 24.2307 15.3517 24.232 16.5158 24.2257C16.7718 23.9697 17.0154 23.7261 17.2542 23.4873L21.3535 19.3898V27.6923H2.89201V6.92308H5.19985V9.23077H19.0459V6.92308H21.3535V11.2296L23.6612 8.92197V6.92308C23.6612 5.64851 22.6281 4.61538 21.3535 4.61538H18.1499C17.7225 4.14065 17.1736 3.7774 16.5429 3.59596C16.0115 3.44322 15.6026 3.03433 15.4499 2.50298C15.0342 1.0575 13.702 0 12.1228 0C10.5436 0 9.21148 1.0575 8.79567 2.50291C8.64271 3.03483 8.23281 3.44322 7.70088 3.59647C7.07074 3.77805 6.52237 4.14094 6.09545 4.61538H2.89201C1.61752 4.61538 0.58432 5.64851 0.58432 6.92308V27.6923C0.58432 28.9668 1.61752 30 2.89201 30H21.3535C22.6281 30 23.6612 28.9668 23.6612 27.6923V17.0831L27.0471 13.6987L23.7834 10.4351ZM16.0351 23.0745C15.6052 23.077 15.5548 23.077 14.453 23.0769L14.4305 23.0769V22.4309V21.4157L14.8065 21.0396L16.4382 22.6714L16.0351 23.0745ZM12.1376 2.30762C12.7748 2.30762 13.2914 2.82418 13.2914 3.46147C13.2914 4.09868 12.7748 4.61531 12.1376 4.61531C11.5003 4.61531 10.9837 4.09868 10.9837 3.46147C10.9837 2.82418 11.5004 2.30762 12.1376 2.30762Z" fill="#333333"/>
</g>
<defs>
<clipPath id="clip0_1_104">
<rect width="30" height="30" fill="white"/>
</clipPath>
</defs>
</svg>
