<svg width="26" height="26" viewBox="0 0 26 26" fill="none" xmlns="http://www.w3.org/2000/svg">
<g clip-path="url(#clip0_1_6)">
<path d="M22.1924 3.80763C19.737 1.35225 16.4724 0 13 0C9.52758 0 6.263 1.3523 3.80763 3.80763C1.35225 6.26295 0 9.52758 0 13C0 16.4724 1.35225 19.737 3.80763 22.1924C6.26295 24.6477 9.52758 26 13 26C16.4724 26 19.737 24.6477 22.1924 22.1924C24.6477 19.737 26 16.4724 26 13C26 9.52758 24.6477 6.26295 22.1924 3.80763ZM13 23.8995C6.99004 23.8995 2.10052 19.01 2.10052 13C2.10052 6.99004 6.99004 2.10052 13 2.10052C19.01 2.10052 23.8995 6.99004 23.8995 13C23.8995 19.01 19.01 23.8995 13 23.8995Z" fill="#A0CD4E"/>
<path d="M17.3277 15.8421L14.0503 12.5649V5.83004C14.0503 5.25002 13.5802 4.77979 13.0001 4.77979C12.4201 4.77979 11.9498 5.25002 11.9498 5.83004V12.9999C11.9498 13.2785 12.0605 13.5456 12.2574 13.7426L15.8423 17.3275C16.0474 17.5326 16.3162 17.6351 16.585 17.6351C16.8538 17.6351 17.1226 17.5326 17.3277 17.3275C17.7378 16.9173 17.7378 16.2523 17.3277 15.8421Z" fill="#A0CD4E"/>
</g>
<defs>
<clipPath id="clip0_1_6">
<rect width="26" height="26" fill="white"/>
</clipPath>
</defs>
</svg>
