<svg width="26" height="26" viewBox="0 0 26 26" fill="none" xmlns="http://www.w3.org/2000/svg">
<g clip-path="url(#clip0_1_26)">
<path d="M20.5482 16.1061C20.0159 15.5519 19.3739 15.2555 18.6934 15.2555C18.0184 15.2555 17.3709 15.5464 16.8167 16.1006L15.0826 17.8292C14.94 17.7523 14.7973 17.681 14.6601 17.6097C14.4626 17.5109 14.276 17.4176 14.1169 17.3188C12.4926 16.2872 11.0164 14.9427 9.60066 13.2032C8.91472 12.3362 8.45377 11.6064 8.11904 10.8655C8.56901 10.454 8.98606 10.026 9.39213 9.6144C9.54578 9.46075 9.69943 9.30161 9.85308 9.14796C11.0055 7.99559 11.0055 6.503 9.85308 5.35063L8.355 3.85255C8.18489 3.68244 8.00929 3.50684 7.84466 3.33124C7.51542 2.99101 7.1697 2.63981 6.81302 2.31057C6.28073 1.78377 5.64419 1.50391 4.97471 1.50391C4.30524 1.50391 3.65772 1.78377 3.10897 2.31057C3.10348 2.31605 3.10348 2.31605 3.098 2.32154L1.23225 4.20375C0.529856 4.90614 0.12927 5.76219 0.0414705 6.75542C-0.0902289 8.35777 0.381694 9.85036 0.743868 10.8271C1.63284 13.2252 2.96081 15.4476 4.94179 17.8292C7.3453 20.6991 10.2372 22.9654 13.5407 24.5623C14.8028 25.1604 16.4874 25.8683 18.3696 25.989C18.4849 25.9945 18.6056 26 18.7154 26C19.983 26 21.0475 25.5445 21.8816 24.6391C21.8871 24.6281 21.8981 24.6227 21.9036 24.6117C22.1889 24.266 22.5182 23.9532 22.8639 23.6184C23.0999 23.3935 23.3413 23.1575 23.5773 22.9106C24.1205 22.3453 24.4059 21.6869 24.4059 21.0119C24.4059 20.3314 24.115 19.6784 23.5608 19.1297L20.5482 16.1061ZM22.5127 21.8844C22.5072 21.8844 22.5072 21.8899 22.5127 21.8844C22.2987 22.1149 22.0792 22.3234 21.8432 22.5539C21.4865 22.8941 21.1244 23.2508 20.7841 23.6514C20.2299 24.244 19.5769 24.5239 18.7208 24.5239C18.6385 24.5239 18.5507 24.5239 18.4684 24.5184C16.8386 24.4141 15.3241 23.7776 14.1882 23.2343C11.0823 21.7308 8.355 19.5961 6.08867 16.8908C4.21744 14.6354 2.9663 12.5502 2.13769 10.3113C1.62735 8.94493 1.44078 7.88036 1.52309 6.87615C1.57796 6.23411 1.8249 5.70183 2.28036 5.24637L4.15159 3.37514C4.42048 3.12271 4.70583 2.98553 4.98569 2.98553C5.3314 2.98553 5.61126 3.19405 5.78686 3.36965C5.79235 3.37514 5.79783 3.38062 5.80332 3.38611C6.13806 3.6989 6.45633 4.02266 6.79107 4.36837C6.96118 4.54397 7.13678 4.71957 7.31238 4.90066L8.81046 6.39874C9.39213 6.98041 9.39213 7.51818 8.81046 8.09986C8.65132 8.25899 8.49767 8.41813 8.33854 8.57178C7.87759 9.0437 7.43859 9.4827 6.96118 9.91072C6.95021 9.9217 6.93923 9.92719 6.93374 9.93816C6.46182 10.4101 6.54962 10.871 6.64839 11.1838C6.65388 11.2003 6.65937 11.2167 6.66486 11.2332C7.05447 12.1771 7.60322 13.066 8.43731 14.1251L8.4428 14.1306C9.95734 15.9963 11.5542 17.4505 13.3157 18.5645C13.5407 18.7071 13.7711 18.8224 13.9906 18.9321C14.1882 19.0309 14.3748 19.1242 14.5339 19.223C14.5559 19.2339 14.5778 19.2504 14.5998 19.2614C14.7863 19.3547 14.9619 19.3986 15.143 19.3986C15.5985 19.3986 15.8838 19.1132 15.9771 19.0199L17.8538 17.1432C18.0404 16.9566 18.3367 16.7317 18.6824 16.7317C19.0227 16.7317 19.3025 16.9457 19.4726 17.1322C19.4781 17.1377 19.4781 17.1377 19.4836 17.1432L22.5072 20.1668C23.0724 20.7265 23.0724 21.3027 22.5127 21.8844Z" fill="#A0CD4E"/>
<path d="M14.0509 6.18467C15.4887 6.42612 16.7947 7.10657 17.8373 8.14919C18.8799 9.19181 19.5549 10.4978 19.8018 11.9356C19.8622 12.2977 20.175 12.5501 20.5316 12.5501C20.5755 12.5501 20.614 12.5447 20.6579 12.5392C21.0639 12.4733 21.3328 12.0892 21.267 11.6831C20.9706 9.9436 20.1475 8.35772 18.8909 7.10108C17.6343 5.84445 16.0484 5.02133 14.3089 4.72501C13.9028 4.65916 13.5241 4.92804 13.4528 5.32863C13.3815 5.72921 13.6449 6.11883 14.0509 6.18467Z" fill="#A0CD4E"/>
<path d="M25.9698 11.4694C25.4814 8.60493 24.1315 5.99838 22.0572 3.92411C19.983 1.84984 17.3764 0.499924 14.512 0.0115382C14.1114 -0.059799 13.7327 0.214575 13.6614 0.615161C13.5956 1.02123 13.8644 1.39987 14.2705 1.47121C16.8277 1.90472 19.1599 3.11745 21.0146 4.96673C22.8694 6.8215 24.0766 9.15368 24.5101 11.7108C24.5705 12.073 24.8833 12.3254 25.24 12.3254C25.2839 12.3254 25.3223 12.32 25.3662 12.3145C25.7668 12.2541 26.0412 11.87 25.9698 11.4694Z" fill="#A0CD4E"/>
</g>
<defs>
<clipPath id="clip0_1_26">
<rect width="26" height="26" fill="white"/>
</clipPath>
</defs>
</svg>
