<svg width="30" height="30" viewBox="0 0 30 30" fill="none" xmlns="http://www.w3.org/2000/svg">
<g clip-path="url(#clip0_1_153)">
<path fill-rule="evenodd" clip-rule="evenodd" d="M6.13786 24.9107H2V17.6175H6.13786V24.9107ZM26.5257 0H7.02572C6.20911 0 5.54595 0.682559 5.54595 1.52098V8.81415C5.54595 9.65257 6.20911 10.3351 7.02572 10.3351H15V16.4029H15.296C15.3727 16.4029 15.4494 16.4298 15.5042 16.4889C15.5645 16.548 15.5919 16.6286 15.5919 16.7093L15.5809 17.6122H15.5919V17.6175H17.954V17.6122H18.546V10.3351H26.5257C27.3423 10.3351 28 9.65257 28 8.81415V1.52098C28 0.682559 27.3423 0 26.5257 0ZM26.8217 8.81415C26.8217 8.98076 26.6901 9.12049 26.5257 9.12049H7.02572C6.8613 9.12049 6.72976 8.98076 6.72976 8.81415V6.68585H7.31619V8.5078H26.2298V6.68585H26.8217V8.81415ZM11.75 3.64927V6.68585H13.5257V5.47122H12.6379C12.4734 5.47122 12.3419 5.33686 12.3419 5.16488C12.3419 4.99827 12.4734 4.8639 12.6379 4.8639H13.8217C13.9806 4.8639 14.1121 4.99827 14.1121 5.16488V6.9922C14.1121 7.15881 13.9806 7.29317 13.8217 7.29317H11.454C11.2896 7.29317 11.1581 7.15881 11.1581 6.9922V3.34293C11.1581 3.17632 11.2896 3.04196 11.454 3.04196L13.8217 3.03658C13.9806 3.03658 14.1121 3.17632 14.1121 3.34293V3.95024C14.1121 4.11685 13.9806 4.25659 13.8217 4.25659C13.6573 4.25659 13.5257 4.11685 13.5257 3.95024V3.64927H11.75ZM17.6581 6.68585V5.47122H15.5919C15.4275 5.47122 15.296 5.33686 15.296 5.16488V3.34293C15.296 3.17632 15.4275 3.04196 15.5919 3.04196L17.954 3.03658C18.1185 3.03658 18.25 3.17632 18.25 3.34293V3.95024C18.25 4.11685 18.1185 4.25659 17.954 4.25659C17.7951 4.25659 17.6581 4.11685 17.6581 3.95024V3.64927H15.8879V4.8639H17.954C18.1185 4.8639 18.25 4.99827 18.25 5.16488V6.9922C18.25 7.15881 18.1185 7.29317 17.954 7.29317H15.5919C15.4275 7.29317 15.296 7.15881 15.296 6.9922V6.38488C15.296 6.2129 15.4275 6.07854 15.5919 6.07854C15.7563 6.07854 15.8879 6.2129 15.8879 6.38488V6.68585H17.6581ZM21.204 3.64927V6.9922C21.204 7.15881 21.0725 7.29317 20.9136 7.29317C20.7492 7.29317 20.6176 7.15881 20.6176 6.9922V3.64927H20.0257V3.95024C20.0257 4.11685 19.8942 4.25659 19.7298 4.25659C19.5653 4.25659 19.4338 4.11685 19.4338 3.95024V3.34293C19.4338 3.17632 19.5653 3.04196 19.7298 3.04196L22.0919 3.03658C22.2563 3.03658 22.3879 3.17632 22.3879 3.34293V3.95024C22.3879 4.11685 22.2563 4.25659 22.0919 4.25659C21.9275 4.25659 21.796 4.11685 21.796 3.95024V3.64927H21.204ZM26.8217 3.64927H26.2298V1.82195H7.31619V3.64927H6.72976V1.52098C6.72976 1.34899 6.8613 1.21463 7.02572 1.21463H26.5257C26.6901 1.21463 26.8217 1.34899 26.8217 1.52098V3.64927ZM19.1379 21.2614C19.4612 21.2614 19.7298 20.9927 19.7298 20.6541C19.7298 20.3209 19.4612 20.0468 19.1379 20.0468H16.4688C16.3044 20.0468 16.1728 19.9124 16.1728 19.7458C16.1728 19.5739 16.3044 19.4395 16.4688 19.4395H19.1379C19.4612 19.4395 19.7298 19.1654 19.7298 18.8322V18.8161V18.7999V18.7838C19.7078 18.4936 19.4831 18.2571 19.1981 18.2249C19.1927 18.2249 19.1872 18.2249 19.1817 18.2249H19.1707H19.1543C19.1488 18.2249 19.1433 18.2249 19.1379 18.2249H18.3158H15.285C15.2137 18.2249 15.148 18.198 15.0987 18.155C15.0932 18.1496 15.0877 18.1442 15.0822 18.1389C15.0822 18.1389 15.0767 18.1389 15.0767 18.1335C15.0219 18.0744 14.989 17.9991 14.989 17.9185L15 17.0102H13.6463L12.5502 18.1335C12.5447 18.1442 12.5337 18.1496 12.5228 18.1604H12.5173C12.4844 18.1926 12.4406 18.2087 12.3967 18.2195H12.3858H12.3803H12.3748L12.3693 18.2249H12.3638H12.3583H12.3529H12.3474H12.3419H10.2757V23.6961H11.1581H11.1636H11.1691H11.1745C11.2458 23.7015 11.317 23.7337 11.3718 23.7874L12.4625 24.9107H19.1379C19.4612 24.9107 19.7298 24.6366 19.7298 24.3034C19.7298 23.9648 19.4612 23.6961 19.1379 23.6961H16.4688H16.4578H16.4524H16.4414H16.4359V23.6907C16.2934 23.68 16.1838 23.5617 16.1728 23.4166V23.4059V23.4005V23.3897C16.1728 23.2231 16.3044 23.0888 16.4688 23.0888H19.1379C19.4612 23.0888 19.7298 22.8147 19.7298 22.4814C19.7298 22.1429 19.4612 21.8688 19.1379 21.8688H16.4688H16.4578H16.4524H16.4414C16.2934 21.858 16.1728 21.7236 16.1728 21.5678C16.1728 21.4227 16.266 21.3044 16.3976 21.2722H16.4085L16.414 21.2668H16.4195H16.4304H16.4359H16.4414L16.4524 21.2614H16.4578H16.4688H19.1379ZM6.72976 24.9107H9.68381V17.6175H6.72976V24.9107ZM8.18761 22.7824C8.51096 22.7824 8.77951 23.0565 8.77951 23.3897C8.77951 23.7283 8.51096 23.9971 8.18761 23.9971C7.85877 23.9971 7.5957 23.7283 7.5957 23.3897C7.5957 23.0565 7.85877 22.7824 8.18761 22.7824ZM17.0552 25.518H15V30.699C15 30.8656 15.1315 31 15.296 31H18.25C18.4144 31 18.546 30.8656 18.546 30.699V25.518H17.0552Z" fill="#333333"/>
</g>
<defs>
<clipPath id="clip0_1_153">
<rect width="30" height="30" fill="white"/>
</clipPath>
</defs>
</svg>
