<svg width="24" height="24" viewBox="0 0 24 24" fill="none" xmlns="http://www.w3.org/2000/svg">
<g clip-path="url(#clip0_1_276)">
<path d="M23.5977 10.9252L19.9603 7.28788V3.08616C19.9603 2.32644 19.3447 1.71074 18.5838 1.71074C17.8247 1.71074 17.2091 2.32644 17.2091 3.08616V4.53668L14.5008 1.82832C13.1618 0.490046 10.8337 0.49242 9.4978 1.83074L0.403147 10.9252C-0.133731 11.4631 -0.133731 12.3336 0.403147 12.8707C0.940266 13.4085 1.81239 13.4085 2.34932 12.8707L11.4431 3.77599C11.7393 3.48129 12.2615 3.48129 12.5562 3.77511L21.6515 12.8707C21.9212 13.1396 22.2728 13.2734 22.6244 13.2734C22.9766 13.2734 23.3288 13.1395 23.5977 12.8707C24.1348 12.3336 24.1348 11.4632 23.5977 10.9252Z" fill="#A0CD4E"/>
<path d="M12.4778 6.38684C12.2136 6.12276 11.7857 6.12276 11.5223 6.38684L3.52261 14.3841C3.39631 14.5104 3.32471 14.6828 3.32471 14.8626V20.6956C3.32471 22.0643 4.43451 23.1741 5.8032 23.1741H9.76385V17.0403H14.2354V23.1741H18.1961C19.5647 23.1741 20.6745 22.0643 20.6745 20.6956V14.8626C20.6745 14.6828 20.6035 14.5104 20.4766 14.3841L12.4778 6.38684Z" fill="#A0CD4E"/>
</g>
<defs>
<clipPath id="clip0_1_276">
<rect width="24" height="24" fill="white"/>
</clipPath>
</defs>
</svg>
