<svg width="30" height="30" viewBox="0 0 30 30" fill="none" xmlns="http://www.w3.org/2000/svg">
<g clip-path="url(#clip0_1_70)">
<path d="M22.1216 14.2816C22.0648 14.339 22.0119 14.3997 21.955 14.4558C21.2287 15.1815 20.4742 15.7547 19.7306 16.2168C20.757 17.7296 21.5255 19.2838 21.955 20.7889C22.6061 23.0618 22.3923 24.9511 21.3697 25.9743C20.734 26.6094 19.8028 26.933 18.6015 26.933C15.5492 26.933 11.6238 24.9033 8.35959 21.6378C3.24757 16.5258 1.97037 10.6778 4.02117 8.62573C4.6569 7.99 5.58816 7.6683 6.78941 7.6683C8.87533 7.6683 11.3691 8.61616 13.7812 10.2591C14.2446 9.51805 14.8158 8.76424 15.5397 8.04042C15.5977 7.9817 15.6596 7.92745 15.7177 7.87C12.7261 5.78536 9.5685 4.60071 6.78941 4.60071C4.77435 4.60071 3.06758 5.24282 1.85292 6.45748C-1.79487 10.1053 0.111043 17.7251 6.19134 23.806C10.0683 27.6849 14.7086 30 18.6015 30C20.6159 30 22.3233 29.3572 23.5374 28.1432C25.3973 26.2832 25.883 23.372 24.9033 19.9457C24.3671 18.0634 23.4078 16.1313 22.1216 14.2816Z" fill="#333333"/>
<path d="M9.37702 9.9873C8.30598 9.9873 7.6428 10.4264 7.27451 10.7941C6.70389 11.3647 5.91497 12.7038 7.04281 15.2672C7.6811 16.7174 8.82235 18.3041 10.2566 19.739C12.5927 22.0764 15.2154 23.5285 17.0996 23.5285C18.1706 23.5285 18.8338 23.0894 19.2015 22.7224C19.7721 22.1511 20.5623 20.812 19.4345 18.2486C19.2289 17.7833 18.9672 17.3033 18.6653 16.8176C16.3752 17.955 14.4456 18.0584 14.3288 18.0648C13.6854 18.0916 13.0574 17.8459 12.6029 17.392C12.1491 16.9382 11.904 16.3095 11.9321 15.668C11.9372 15.55 12.0387 13.6236 13.1735 11.3366C11.7948 10.482 10.4634 9.9873 9.37702 9.9873Z" fill="#333333"/>
<path d="M29.9744 4.91972C29.9087 4.66058 29.7153 4.45186 29.4574 4.37271L26.5392 3.45677L25.6232 0.536621C25.5428 0.281307 25.3341 0.0859923 25.075 0.0215256C24.8145 -0.0423029 24.5388 0.0349296 24.3486 0.223862L21.6876 2.88551C21.5076 3.06614 21.4278 3.32465 21.4776 3.57549L21.8063 5.24333C20.2527 5.99523 18.2906 7.4569 16.6241 9.12282C13.6529 12.0947 13.4703 15.5842 13.4639 15.7316C13.455 15.9461 13.5361 16.1542 13.688 16.3061C13.8405 16.4567 14.048 16.539 14.2631 16.5301C14.4105 16.5237 17.9 16.3412 20.8719 13.37C22.5365 11.7028 23.9988 9.73941 24.7501 8.18774L26.4192 8.51581C26.6707 8.5656 26.9279 8.48645 27.1085 8.30582L29.7702 5.64417C29.9597 5.45588 30.0382 5.18142 29.9744 4.91972Z" fill="#333333"/>
</g>
<defs>
<clipPath id="clip0_1_70">
<rect width="30" height="30" fill="white"/>
</clipPath>
</defs>
</svg>
