<svg width="30" height="30" viewBox="0 0 30 30" fill="none" xmlns="http://www.w3.org/2000/svg">
<g clip-path="url(#clip0_1_132)">
<path d="M17.0405 19.9283C16.9284 19.8056 16.7867 19.7138 16.6402 19.6374C16.3213 19.4711 15.9725 19.3702 15.6262 19.2791V21.9627C16.1883 21.8992 16.8336 21.6952 17.1288 21.1704C17.2697 20.9197 17.2977 20.6117 17.2403 20.3327C17.2092 20.1815 17.1449 20.0427 17.0405 19.9283Z" fill="#333333"/>
<path d="M17.1258 21.1756C17.1269 21.1737 17.1276 21.1725 17.1288 21.1704C17.1278 21.1721 17.1268 21.1738 17.1258 21.1756Z" fill="#333333"/>
<path d="M12.9895 15.6384C12.8929 15.7795 12.8322 15.9398 12.8155 16.1102C12.7988 16.281 12.8082 16.4709 12.873 16.6317C12.9348 16.7848 13.0642 16.8979 13.1977 16.989C13.3476 17.0909 13.5124 17.1705 13.6803 17.238C13.8211 17.2947 13.9796 17.3489 14.1503 17.4013V14.973C13.7189 15.065 13.2476 15.2615 12.9895 15.6384Z" fill="#333333"/>
<path d="M17.1399 21.1505C17.1363 21.1568 17.1325 21.1634 17.1288 21.1703C17.1332 21.1622 17.1366 21.1563 17.1399 21.1505Z" fill="#333333"/>
<path d="M17.1541 21.1254C17.155 21.1237 17.1551 21.1236 17.1541 21.1254V21.1254Z" fill="#333333"/>
<path d="M16.5716 6.52771C18.8537 4.61058 20.3786 0.291572 19.4402 0.102669C18.1933 -0.148425 15.4855 0.952592 14.1768 1.14658C12.3205 1.37071 10.2987 -0.866342 9.16391 0.380589C8.2412 1.39443 9.82542 5.08143 12.304 6.68767C4.90936 10.322 -5.48426 28.5667 12.648 29.8905C37.737 31.7223 25.174 10.0693 16.5716 6.52771ZM18.7262 20.9163C18.6491 21.6276 18.2721 22.2708 17.7087 22.7075C17.1137 23.1686 16.3675 23.3831 15.6261 23.4432V24.2291C15.6261 24.4393 15.5342 24.6427 15.3768 24.7819C15.1604 24.9734 14.8425 25.0206 14.5799 24.8996C14.3206 24.7803 14.1503 24.5144 14.1503 24.2291V23.3701C14.0231 23.346 13.8969 23.3172 13.7722 23.283C13.0793 23.0926 12.4365 22.7215 11.967 22.1724C11.7332 21.8988 11.5425 21.5882 11.4106 21.253C11.3762 21.1654 11.3455 21.0761 11.3186 20.9859C11.2942 20.9043 11.2691 20.8212 11.2604 20.7361C11.2458 20.5933 11.2741 20.4476 11.3407 20.3204C11.4775 20.0587 11.7658 19.9007 12.0601 19.9269C12.3498 19.9526 12.6038 20.1537 12.695 20.4298C12.7231 20.5149 12.7421 20.6021 12.7737 20.6862C12.8049 20.7698 12.8427 20.851 12.8871 20.9284C12.9748 21.0807 13.0846 21.2212 13.2111 21.3431C13.4719 21.5944 13.804 21.7576 14.1503 21.8548V18.935C13.4732 18.7597 12.7744 18.5333 12.2153 18.0986C11.9436 17.8872 11.713 17.6246 11.562 17.3138C11.4027 16.9858 11.3367 16.6203 11.334 16.2574C11.3313 15.8888 11.4013 15.5235 11.5551 15.1877C11.6991 14.8733 11.9064 14.591 12.1606 14.357C12.7041 13.8567 13.4262 13.5776 14.1503 13.4751V13.4109V12.6593C14.1503 12.4491 14.2422 12.2456 14.3996 12.1064C14.616 11.915 14.9338 11.8678 15.1965 11.9887C15.4557 12.1081 15.6261 12.374 15.6261 12.6593V13.4109V13.4707C15.7226 13.4828 15.8189 13.4974 15.9146 13.5147C16.6257 13.6434 17.3212 13.9371 17.8413 14.4498C18.0877 14.6926 18.2893 14.982 18.4312 15.2975C18.4708 15.3855 18.5054 15.4756 18.5354 15.5675C18.5634 15.6531 18.5915 15.7413 18.6048 15.8306C18.6261 15.9733 18.6044 16.1207 18.5433 16.2512C18.4182 16.5186 18.1377 16.6889 17.8426 16.6762C17.5526 16.6636 17.2898 16.4748 17.186 16.2037C17.1551 16.1231 17.1396 16.0377 17.1081 15.9573C17.0762 15.8759 17.035 15.7983 16.9875 15.7249C16.8952 15.5824 16.7755 15.4601 16.6389 15.3594C16.3431 15.1409 15.9844 15.0272 15.6259 14.9635V17.7577C16.0519 17.8597 16.4783 17.971 16.8865 18.1319C17.5034 18.3752 18.0879 18.7482 18.4247 19.3363C18.3724 19.2447 18.3216 19.1554 18.4264 19.3394C18.5294 19.5201 18.4802 19.434 18.4285 19.3434C18.6964 19.8155 18.7845 20.38 18.7262 20.9163Z" fill="#333333"/>
<path d="M17.118 21.1895C17.1136 21.1971 17.1099 21.2039 17.1069 21.2091C17.1095 21.2046 17.1133 21.1979 17.118 21.1895Z" fill="#333333"/>
</g>
<defs>
<clipPath id="clip0_1_132">
<rect width="30" height="30" fill="white"/>
</clipPath>
</defs>
</svg>
