<svg width="24" height="24" viewBox="0 0 24 24" fill="none" xmlns="http://www.w3.org/2000/svg">
<path d="M7.76 12.085C11.095 12.085 13.8 9.38 13.8 6.045C13.8 2.71 11.095 0 7.76 0C4.425 0 1.72 2.705 1.72 6.04C1.72 9.375 4.425 12.085 7.76 12.085ZM5.65 8.43C5.705 8.23 5.76 8.035 5.82 7.835C5.89 7.605 5.955 7.58 6.165 7.69C6.525 7.875 6.905 7.98 7.305 8.03C7.56 8.06 7.815 8.035 8.05 7.93C8.495 7.735 8.565 7.22 8.19 6.91C8.06 6.805 7.915 6.725 7.765 6.66C7.375 6.49 6.97 6.36 6.6 6.14C6.005 5.785 5.625 5.29 5.67 4.565C5.72 3.745 6.185 3.23 6.935 2.96C7.245 2.845 7.245 2.85 7.25 2.525C7.25 2.415 7.25 2.305 7.25 2.195C7.255 1.95 7.3 1.91 7.54 1.9C7.615 1.9 7.69 1.9 7.765 1.9C8.285 1.9 8.285 1.9 8.285 2.42C8.285 2.785 8.285 2.79 8.65 2.845C8.93 2.89 9.195 2.97 9.455 3.085C9.6 3.15 9.65 3.25 9.61 3.4C9.545 3.625 9.485 3.85 9.41 4.07C9.34 4.28 9.275 4.31 9.075 4.215C8.67 4.02 8.245 3.935 7.795 3.96C7.675 3.965 7.565 3.98 7.455 4.03C7.07 4.2 7.005 4.625 7.335 4.89C7.5 5.025 7.69 5.12 7.89 5.2C8.23 5.34 8.575 5.48 8.905 5.66C9.94 6.235 10.22 7.535 9.49 8.42C9.225 8.74 8.885 8.955 8.48 9.065C8.305 9.115 8.225 9.205 8.235 9.385C8.245 9.565 8.235 9.74 8.235 9.92C8.235 10.08 8.155 10.165 7.995 10.17C7.805 10.175 7.61 10.175 7.42 10.17C7.25 10.165 7.17 10.07 7.17 9.905C7.17 9.775 7.17 9.645 7.165 9.515C7.16 9.23 7.155 9.215 6.875 9.17C6.52 9.115 6.175 9.035 5.85 8.875C5.605 8.76 5.58 8.695 5.65 8.43Z" fill="#A0CD4E"/>
<path d="M21.31 12.59H20.605C20.14 11.165 19.23 9.9 18.015 8.92C18.015 8.875 18.005 8.825 17.995 8.78C17.74 7.885 18.055 7.07 18.42 6.485C18.675 6.075 18.345 5.55 17.865 5.61C16.79 5.745 16.05 6.14 15.54 6.585C15.19 6.89 14.94 7.3 14.83 7.755C14.06 10.945 11.185 13.32 7.75999 13.32C6.095 13.32 4.565 12.76 3.34 11.82C2.915 12.74 2.685 13.745 2.685 14.8C2.685 15.37 2.755 15.925 2.885 16.46C2.885 16.46 2.885 16.47 2.89 16.485C3.025 17.04 3.23 17.575 3.49 18.08C3.835 18.825 4.335 19.695 5.025 20.4C6.01999 21.425 6.19 22.695 6.215 23.245V23.48C6.215 23.49 6.215 23.5 6.215 23.51C6.215 23.515 6.215 23.515 6.215 23.515C6.235 23.785 6.45999 24 6.73499 24H9.89499C10.18 24 10.415 23.77 10.415 23.48V22.7C10.875 22.76 11.345 22.795 11.82 22.795C12.195 22.795 12.56 22.775 12.925 22.735V23.48C12.925 23.765 13.155 24 13.445 24H16.615C16.9 24 17.135 23.77 17.135 23.48V22.7C17.14 22.44 17.23 21.405 18.21 20.52C18.245 20.49 18.28 20.46 18.315 20.43C18.325 20.42 18.335 20.415 18.345 20.405C19.435 19.435 20.24 18.225 20.655 16.875H21.32C21.85 16.875 22.28 16.445 22.28 15.915V13.55C22.27 13.02 21.84 12.59 21.31 12.59ZM17.355 12.76C16.92 12.76 16.57 12.41 16.57 11.975C16.57 11.54 16.92 11.19 17.355 11.19C17.79 11.19 18.14 11.54 18.14 11.975C18.14 12.41 17.79 12.76 17.355 12.76Z" fill="#A0CD4E"/>
</svg>
