<svg width="24" height="24" viewBox="0 0 24 24" fill="none" xmlns="http://www.w3.org/2000/svg">
<g clip-path="url(#clip0_1_270)">
<path d="M20.0925 22.9093H3.90621C2.49606 22.9093 1.2332 22.1802 0.528181 20.9591C-0.176836 19.7379 -0.176953 18.2797 0.528181 17.0584L8.6214 3.04078C9.32642 1.81965 10.5893 1.09052 11.9994 1.09052C13.4096 1.09052 14.6724 1.81965 15.3775 3.04078L23.4706 17.0584C24.1757 18.2797 24.1757 19.7378 23.4706 20.9591C22.7654 22.1803 21.5026 22.9093 20.0925 22.9093ZM11.9994 2.21153C10.9945 2.21153 10.0947 2.73114 9.59222 3.60129L1.49904 17.6189C0.996611 18.4892 0.996689 19.5283 1.49904 20.3985C2.00139 21.2688 2.90135 21.7883 3.90625 21.7883H20.0924C21.0973 21.7883 21.9972 21.2687 22.4996 20.3985C23.0021 19.5284 23.0021 18.4892 22.4996 17.6189L14.4065 3.60129C13.9042 2.73102 13.0043 2.21153 11.9994 2.21153ZM21.7833 17.6823L13.9797 4.16596C13.5664 3.44996 12.8261 3.02263 11.9994 3.02263C11.1726 3.02263 10.4323 3.45008 10.019 4.16596L2.21535 17.6823C1.8019 18.3983 1.80202 19.2531 2.21535 19.969C2.62868 20.6849 3.36899 21.1123 4.19577 21.1123H19.803C20.6298 21.1123 21.3701 20.6849 21.7835 19.969C22.1968 19.2531 22.1967 18.3982 21.7833 17.6823ZM10.5861 8.38375C10.5861 7.60453 11.2201 6.97057 11.9993 6.97057C12.7785 6.97057 13.4125 7.60453 13.4125 8.38375V12.9699C13.4125 13.7491 12.7785 14.3831 11.9993 14.3831C11.2201 14.3831 10.5861 13.7491 10.5861 12.9699V8.38375ZM11.9993 18.5516C11.2008 18.5516 10.5512 17.9019 10.5512 17.1034C10.5512 16.3049 11.2008 15.6553 11.9993 15.6553C12.7978 15.6553 13.4475 16.3049 13.4475 17.1034C13.4475 17.9019 12.7978 18.5516 11.9993 18.5516Z" fill="#A0CD4E"/>
</g>
<defs>
<clipPath id="clip0_1_270">
<rect width="24" height="24" fill="white"/>
</clipPath>
</defs>
</svg>
