<svg width="26" height="26" viewBox="0 0 26 26" fill="none" xmlns="http://www.w3.org/2000/svg">
<g clip-path="url(#clip0_1_183)">
<path d="M22.1924 3.80758C19.737 1.35225 16.4724 0 13 0C9.52753 0 6.2629 1.35225 3.80758 3.80758C1.3522 6.26295 0 9.52758 0 13C0 16.4724 1.3522 19.737 3.80758 22.1924C6.26295 24.6477 9.52753 26 13 26C16.4724 26 19.737 24.6477 22.1924 22.1924C24.6477 19.737 26 16.4724 26 13C26 9.52758 24.6477 6.263 22.1924 3.80758ZM13 24.4766C6.67179 24.4766 1.52344 19.3282 1.52344 13C1.52344 6.67179 6.67179 1.52344 13 1.52344C19.3282 1.52344 24.4766 6.67179 24.4766 13C24.4766 19.3282 19.3282 24.4766 13 24.4766Z" fill="#A0CD4E"/>
<path d="M19.2108 8.82874C18.9134 8.53136 18.4311 8.53136 18.1336 8.82879L11.4072 15.5552L7.86637 12.0144C7.56895 11.717 7.08662 11.717 6.78915 12.0144C6.49167 12.3118 6.49167 12.7941 6.78915 13.0916L10.8686 17.171C11.0173 17.3198 11.2122 17.3941 11.4071 17.3941C11.602 17.3941 11.797 17.3197 11.9457 17.171L19.2108 9.90596C19.5083 9.60853 19.5083 9.12621 19.2108 8.82874Z" fill="#A0CD4E"/>
</g>
<defs>
<clipPath id="clip0_1_183">
<rect width="26" height="26" fill="white"/>
</clipPath>
</defs>
</svg>
