<svg width="24" height="24" viewBox="0 0 24 24" fill="none" xmlns="http://www.w3.org/2000/svg">
<g clip-path="url(#clip0_1_261)">
<path d="M21.9672 5.32315L21.6081 5.43697L19.696 5.60733L19.1559 6.46982L18.764 6.3453L17.2422 4.97326L17.0214 4.25974L16.7258 3.49885L15.7693 2.64095L14.641 2.42017L14.615 2.93659L15.7204 4.01528L16.2613 4.6524L15.6532 4.9702L15.1582 4.82429L14.4164 4.51489L14.4416 3.91673L13.4683 3.51642L13.1452 4.92284L12.1643 5.14515L12.2613 5.92971L13.5394 6.1757L13.7602 4.92208L14.8152 5.07792L15.3056 5.36516H16.0925L16.631 6.44385L18.0589 7.89228L17.9542 8.45531L16.8029 8.30863L14.8136 9.31321L13.3812 11.0313L13.1948 11.7922H12.6807L11.7227 11.3506L10.7922 11.7922L11.0237 12.7739L11.4286 12.3071L12.1406 12.2849L12.0909 13.1665L12.6807 13.3392L13.2697 14.0008L14.2315 13.7303L15.3301 13.9037L16.6058 14.2467L17.243 14.3216L18.3232 15.5477L20.408 16.7739L19.0596 19.3499L17.6364 20.0115L17.0963 21.4836L15.0367 22.8587L14.8174 23.6516C20.0825 22.3835 23.9993 17.6539 23.9993 11.9992C23.9977 9.52941 23.2491 7.23071 21.9672 5.32315Z" fill="#A0CD4E"/>
<path d="M13.3814 18.2712L12.5075 16.6509L13.3096 14.9794L12.5075 14.7395L11.6068 13.835L9.61136 13.3873L8.94902 12.0015V12.8243H8.6572L6.93756 10.4928V8.57756L5.67706 6.5279L3.67553 6.88466H2.32718L1.6488 6.44005L2.51434 5.75403L1.65109 5.95342C0.610598 7.73035 0.00402832 9.79223 0.00402832 12.0008C0.00402832 18.6264 5.3753 24 12.0017 24C12.512 24 13.0124 23.9549 13.5075 23.8954L13.3822 22.4416C13.3822 22.4416 13.933 20.2827 13.933 20.2093C13.9322 20.1352 13.3814 18.2712 13.3814 18.2712Z" fill="#A0CD4E"/>
<path d="M4.46142 3.86937L6.59282 3.57219L7.57525 3.03361L8.68067 3.35218L10.4469 3.25439L11.0519 2.30328L11.9343 2.44843L14.0772 2.24752L14.6677 1.59664L15.5004 1.04049L16.6784 1.21772L17.1077 1.15279C15.5561 0.42246 13.8296 0 12 0C8.27578 0 4.94576 1.69748 2.74713 4.36287H2.75324L4.46142 3.86937ZM12.5073 1.19328L13.7326 0.518717L14.5195 0.973262L13.3804 1.84034L12.2926 1.94958L11.8029 1.63178L12.5073 1.19328ZM8.87777 1.29183L9.41864 1.51719L10.1268 1.29183L10.5126 1.96027L8.87777 2.38961L8.09167 1.92972C8.09091 1.92972 8.8602 1.43468 8.87777 1.29183Z" fill="#A0CD4E"/>
</g>
<defs>
<clipPath id="clip0_1_261">
<rect width="24" height="24" fill="white"/>
</clipPath>
</defs>
</svg>
