<svg width="112" height="17" viewBox="0 0 112 17" fill="none" xmlns="http://www.w3.org/2000/svg">
<path d="M8.30566 9.76562C8.30566 9.4668 8.25879 9.20312 8.16504 8.97461C8.07715 8.74023 7.91895 8.5293 7.69043 8.3418C7.46777 8.1543 7.15723 7.97559 6.75879 7.80566C6.36621 7.63574 5.86816 7.46289 5.26465 7.28711C4.63184 7.09961 4.06055 6.8916 3.55078 6.66309C3.04102 6.42871 2.60449 6.16211 2.24121 5.86328C1.87793 5.56445 1.59961 5.22168 1.40625 4.83496C1.21289 4.44824 1.11621 4.00586 1.11621 3.50781C1.11621 3.00977 1.21875 2.5498 1.42383 2.12793C1.62891 1.70605 1.92188 1.33984 2.30273 1.0293C2.68945 0.712891 3.14941 0.466797 3.68262 0.291016C4.21582 0.115234 4.81055 0.0273438 5.4668 0.0273438C6.42773 0.0273438 7.24219 0.211914 7.91016 0.581055C8.58398 0.944336 9.09668 1.42188 9.44824 2.01367C9.7998 2.59961 9.97559 3.22656 9.97559 3.89453H8.28809C8.28809 3.41406 8.18555 2.98926 7.98047 2.62012C7.77539 2.24512 7.46484 1.95215 7.04883 1.74121C6.63281 1.52441 6.10547 1.41602 5.4668 1.41602C4.86328 1.41602 4.36523 1.50684 3.97266 1.68848C3.58008 1.87012 3.28711 2.11621 3.09375 2.42676C2.90625 2.7373 2.8125 3.0918 2.8125 3.49023C2.8125 3.75977 2.86816 4.00586 2.97949 4.22852C3.09668 4.44531 3.27539 4.64746 3.51562 4.83496C3.76172 5.02246 4.07227 5.19531 4.44727 5.35352C4.82812 5.51172 5.28223 5.66406 5.80957 5.81055C6.53613 6.01562 7.16309 6.24414 7.69043 6.49609C8.21777 6.74805 8.65137 7.03223 8.99121 7.34863C9.33691 7.65918 9.5918 8.01367 9.75586 8.41211C9.92578 8.80469 10.0107 9.25 10.0107 9.74805C10.0107 10.2695 9.90527 10.7412 9.69434 11.1631C9.4834 11.585 9.18164 11.9453 8.78906 12.2441C8.39648 12.543 7.9248 12.7744 7.37402 12.9385C6.8291 13.0967 6.21973 13.1758 5.5459 13.1758C4.9541 13.1758 4.37109 13.0938 3.79688 12.9297C3.22852 12.7656 2.70996 12.5195 2.24121 12.1914C1.77832 11.8633 1.40625 11.459 1.125 10.9785C0.849609 10.4922 0.711914 9.92969 0.711914 9.29102H2.39941C2.39941 9.73047 2.48438 10.1084 2.6543 10.4248C2.82422 10.7354 3.05566 10.9932 3.34863 11.1982C3.64746 11.4033 3.98438 11.5557 4.35938 11.6553C4.74023 11.749 5.13574 11.7959 5.5459 11.7959C6.1377 11.7959 6.63867 11.7139 7.04883 11.5498C7.45898 11.3857 7.76953 11.1514 7.98047 10.8467C8.19727 10.542 8.30566 10.1816 8.30566 9.76562ZM17.5342 11.374V6.47852C17.5342 6.10352 17.458 5.77832 17.3057 5.50293C17.1592 5.22168 16.9365 5.00488 16.6377 4.85254C16.3389 4.7002 15.9697 4.62402 15.5303 4.62402C15.1201 4.62402 14.7598 4.69434 14.4492 4.83496C14.1445 4.97559 13.9043 5.16016 13.7285 5.38867C13.5586 5.61719 13.4736 5.86328 13.4736 6.12695H11.8477C11.8477 5.78711 11.9355 5.4502 12.1113 5.11621C12.2871 4.78223 12.5391 4.48047 12.8672 4.21094C13.2012 3.93555 13.5996 3.71875 14.0625 3.56055C14.5312 3.39648 15.0527 3.31445 15.627 3.31445C16.3184 3.31445 16.9277 3.43164 17.4551 3.66602C17.9883 3.90039 18.4043 4.25488 18.7031 4.72949C19.0078 5.19824 19.1602 5.78711 19.1602 6.49609V10.9258C19.1602 11.2422 19.1865 11.5791 19.2393 11.9365C19.2979 12.2939 19.3828 12.6016 19.4941 12.8594V13H17.7979C17.7158 12.8125 17.6514 12.5635 17.6045 12.2529C17.5576 11.9365 17.5342 11.6436 17.5342 11.374ZM17.8154 7.23438L17.833 8.37695H16.1895C15.7266 8.37695 15.3135 8.41504 14.9502 8.49121C14.5869 8.56152 14.2822 8.66992 14.0361 8.81641C13.79 8.96289 13.6025 9.14746 13.4736 9.37012C13.3447 9.58691 13.2803 9.8418 13.2803 10.1348C13.2803 10.4336 13.3477 10.7061 13.4824 10.9521C13.6172 11.1982 13.8193 11.3945 14.0889 11.541C14.3643 11.6816 14.7012 11.752 15.0996 11.752C15.5977 11.752 16.0371 11.6465 16.418 11.4355C16.7988 11.2246 17.1006 10.9668 17.3232 10.6621C17.5518 10.3574 17.6748 10.0615 17.6924 9.77441L18.3867 10.5566C18.3457 10.8027 18.2344 11.0752 18.0527 11.374C17.8711 11.6729 17.6279 11.96 17.3232 12.2354C17.0244 12.5049 16.667 12.7305 16.251 12.9121C15.8408 13.0879 15.3779 13.1758 14.8623 13.1758C14.2178 13.1758 13.6523 13.0498 13.166 12.7979C12.6855 12.5459 12.3105 12.209 12.041 11.7871C11.7773 11.3594 11.6455 10.8818 11.6455 10.3545C11.6455 9.84473 11.7451 9.39648 11.9443 9.00977C12.1436 8.61719 12.4307 8.29199 12.8057 8.03418C13.1807 7.77051 13.6318 7.57129 14.1592 7.43652C14.6865 7.30176 15.2754 7.23438 15.9258 7.23438H17.8154ZM24.4688 11.5322L27.0703 3.49023H28.7314L25.3125 13H24.2227L24.4688 11.5322ZM22.2979 3.49023L24.9785 11.5762L25.1631 13H24.0732L20.6279 3.49023H22.2979ZM32.0625 3.49023V13H30.4277V3.49023H32.0625ZM30.3047 0.967773C30.3047 0.704102 30.3838 0.481445 30.542 0.299805C30.7061 0.118164 30.9463 0.0273438 31.2627 0.0273438C31.5732 0.0273438 31.8105 0.118164 31.9746 0.299805C32.1445 0.481445 32.2295 0.704102 32.2295 0.967773C32.2295 1.21973 32.1445 1.43652 31.9746 1.61816C31.8105 1.79395 31.5732 1.88184 31.2627 1.88184C30.9463 1.88184 30.7061 1.79395 30.542 1.61816C30.3838 1.43652 30.3047 1.21973 30.3047 0.967773ZM36.2988 5.52051V13H34.6729V3.49023H36.2109L36.2988 5.52051ZM35.9121 7.88477L35.2354 7.8584C35.2412 7.20801 35.3379 6.60742 35.5254 6.05664C35.7129 5.5 35.9766 5.0166 36.3164 4.60645C36.6562 4.19629 37.0605 3.87988 37.5293 3.65723C38.0039 3.42871 38.5283 3.31445 39.1025 3.31445C39.5713 3.31445 39.9932 3.37891 40.3682 3.50781C40.7432 3.63086 41.0625 3.83008 41.3262 4.10547C41.5957 4.38086 41.8008 4.73828 41.9414 5.17773C42.082 5.61133 42.1523 6.1416 42.1523 6.76855V13H40.5176V6.75098C40.5176 6.25293 40.4443 5.85449 40.2979 5.55566C40.1514 5.25098 39.9375 5.03125 39.6562 4.89648C39.375 4.75586 39.0293 4.68555 38.6191 4.68555C38.2148 4.68555 37.8457 4.77051 37.5117 4.94043C37.1836 5.11035 36.8994 5.34473 36.6592 5.64355C36.4248 5.94238 36.2402 6.28516 36.1055 6.67188C35.9766 7.05273 35.9121 7.45703 35.9121 7.88477ZM50.7832 3.49023H52.2598V12.7979C52.2598 13.6357 52.0898 14.3506 51.75 14.9424C51.4102 15.5342 50.9355 15.9824 50.3262 16.2871C49.7227 16.5977 49.0254 16.7529 48.2344 16.7529C47.9062 16.7529 47.5195 16.7002 47.0742 16.5947C46.6348 16.4951 46.2012 16.3223 45.7734 16.0762C45.3516 15.8359 44.9971 15.5107 44.71 15.1006L45.5625 14.1338C45.9609 14.6143 46.377 14.9482 46.8105 15.1357C47.25 15.3232 47.6836 15.417 48.1113 15.417C48.627 15.417 49.0723 15.3203 49.4473 15.127C49.8223 14.9336 50.1123 14.6465 50.3174 14.2656C50.5283 13.8906 50.6338 13.4277 50.6338 12.877V5.58203L50.7832 3.49023ZM44.2354 8.35059V8.16602C44.2354 7.43945 44.3203 6.78027 44.4902 6.18848C44.666 5.59082 44.915 5.07812 45.2373 4.65039C45.5654 4.22266 45.9609 3.89453 46.4238 3.66602C46.8867 3.43164 47.4082 3.31445 47.9883 3.31445C48.5859 3.31445 49.1074 3.41992 49.5527 3.63086C50.0039 3.83594 50.3848 4.1377 50.6953 4.53613C51.0117 4.92871 51.2607 5.40332 51.4424 5.95996C51.624 6.5166 51.75 7.14648 51.8203 7.84961V8.6582C51.7559 9.35547 51.6299 9.98242 51.4424 10.5391C51.2607 11.0957 51.0117 11.5703 50.6953 11.9629C50.3848 12.3555 50.0039 12.6572 49.5527 12.8682C49.1016 13.0732 48.5742 13.1758 47.9707 13.1758C47.4023 13.1758 46.8867 13.0557 46.4238 12.8154C45.9668 12.5752 45.5742 12.2383 45.2461 11.8047C44.918 11.3711 44.666 10.8613 44.4902 10.2754C44.3203 9.68359 44.2354 9.04199 44.2354 8.35059ZM45.8613 8.16602V8.35059C45.8613 8.8252 45.9082 9.27051 46.002 9.68652C46.1016 10.1025 46.251 10.4688 46.4502 10.7852C46.6553 11.1016 46.916 11.3506 47.2324 11.5322C47.5488 11.708 47.9268 11.7959 48.3662 11.7959C48.9053 11.7959 49.3506 11.6816 49.7021 11.4531C50.0537 11.2246 50.332 10.9229 50.5371 10.5479C50.748 10.1729 50.9121 9.76562 51.0293 9.32617V7.20801C50.9648 6.88574 50.8652 6.5752 50.7305 6.27637C50.6016 5.97168 50.4316 5.70215 50.2207 5.46777C50.0156 5.22754 49.7607 5.03711 49.4561 4.89648C49.1514 4.75586 48.7939 4.68555 48.3838 4.68555C47.9385 4.68555 47.5547 4.7793 47.2324 4.9668C46.916 5.14844 46.6553 5.40039 46.4502 5.72266C46.251 6.03906 46.1016 6.4082 46.002 6.83008C45.9082 7.24609 45.8613 7.69141 45.8613 8.16602ZM59.9766 0.203125H61.6201L65.8125 10.6357L69.9961 0.203125H71.6484L66.4453 13H65.1621L59.9766 0.203125ZM59.4404 0.203125H60.8906L61.1279 8.00781V13H59.4404V0.203125ZM70.7256 0.203125H72.1758V13H70.4883V8.00781L70.7256 0.203125ZM74.4785 8.35059V8.14844C74.4785 7.46289 74.5781 6.82715 74.7773 6.24121C74.9766 5.64941 75.2637 5.13672 75.6387 4.70312C76.0137 4.26367 76.4678 3.92383 77.001 3.68359C77.5342 3.4375 78.1318 3.31445 78.7939 3.31445C79.4619 3.31445 80.0625 3.4375 80.5957 3.68359C81.1348 3.92383 81.5918 4.26367 81.9668 4.70312C82.3477 5.13672 82.6377 5.64941 82.8369 6.24121C83.0361 6.82715 83.1357 7.46289 83.1357 8.14844V8.35059C83.1357 9.03613 83.0361 9.67188 82.8369 10.2578C82.6377 10.8438 82.3477 11.3564 81.9668 11.7959C81.5918 12.2295 81.1377 12.5693 80.6045 12.8154C80.0771 13.0557 79.4795 13.1758 78.8115 13.1758C78.1436 13.1758 77.543 13.0557 77.0098 12.8154C76.4766 12.5693 76.0195 12.2295 75.6387 11.7959C75.2637 11.3564 74.9766 10.8438 74.7773 10.2578C74.5781 9.67188 74.4785 9.03613 74.4785 8.35059ZM76.1045 8.14844V8.35059C76.1045 8.8252 76.1602 9.27344 76.2715 9.69531C76.3828 10.1113 76.5498 10.4805 76.7725 10.8027C77.001 11.125 77.2852 11.3799 77.625 11.5674C77.9648 11.749 78.3604 11.8398 78.8115 11.8398C79.2568 11.8398 79.6465 11.749 79.9805 11.5674C80.3203 11.3799 80.6016 11.125 80.8242 10.8027C81.0469 10.4805 81.2139 10.1113 81.3252 9.69531C81.4424 9.27344 81.501 8.8252 81.501 8.35059V8.14844C81.501 7.67969 81.4424 7.2373 81.3252 6.82129C81.2139 6.39941 81.0439 6.02734 80.8154 5.70508C80.5928 5.37695 80.3115 5.11914 79.9717 4.93164C79.6377 4.74414 79.2451 4.65039 78.7939 4.65039C78.3486 4.65039 77.9561 4.74414 77.6162 4.93164C77.2822 5.11914 77.001 5.37695 76.7725 5.70508C76.5498 6.02734 76.3828 6.39941 76.2715 6.82129C76.1602 7.2373 76.1045 7.67969 76.1045 8.14844ZM86.8008 5.52051V13H85.1748V3.49023H86.7129L86.8008 5.52051ZM86.4141 7.88477L85.7373 7.8584C85.7432 7.20801 85.8398 6.60742 86.0273 6.05664C86.2148 5.5 86.4785 5.0166 86.8184 4.60645C87.1582 4.19629 87.5625 3.87988 88.0312 3.65723C88.5059 3.42871 89.0303 3.31445 89.6045 3.31445C90.0732 3.31445 90.4951 3.37891 90.8701 3.50781C91.2451 3.63086 91.5645 3.83008 91.8281 4.10547C92.0977 4.38086 92.3027 4.73828 92.4434 5.17773C92.584 5.61133 92.6543 6.1416 92.6543 6.76855V13H91.0195V6.75098C91.0195 6.25293 90.9463 5.85449 90.7998 5.55566C90.6533 5.25098 90.4395 5.03125 90.1582 4.89648C89.877 4.75586 89.5312 4.68555 89.1211 4.68555C88.7168 4.68555 88.3477 4.77051 88.0137 4.94043C87.6855 5.11035 87.4014 5.34473 87.1611 5.64355C86.9268 5.94238 86.7422 6.28516 86.6074 6.67188C86.4785 7.05273 86.4141 7.45703 86.4141 7.88477ZM99.0703 13.1758C98.4082 13.1758 97.8076 13.0645 97.2686 12.8418C96.7354 12.6133 96.2754 12.2939 95.8887 11.8838C95.5078 11.4736 95.2148 10.9873 95.0098 10.4248C94.8047 9.8623 94.7021 9.24707 94.7021 8.5791V8.20996C94.7021 7.43652 94.8164 6.74805 95.0449 6.14453C95.2734 5.53516 95.584 5.01953 95.9766 4.59766C96.3691 4.17578 96.8145 3.85645 97.3125 3.63965C97.8105 3.42285 98.3262 3.31445 98.8594 3.31445C99.5391 3.31445 100.125 3.43164 100.617 3.66602C101.115 3.90039 101.522 4.22852 101.839 4.65039C102.155 5.06641 102.39 5.55859 102.542 6.12695C102.694 6.68945 102.771 7.30469 102.771 7.97266V8.70215H95.6689V7.375H101.145V7.25195C101.121 6.83008 101.033 6.41992 100.881 6.02148C100.734 5.62305 100.5 5.29492 100.178 5.03711C99.8555 4.7793 99.416 4.65039 98.8594 4.65039C98.4902 4.65039 98.1504 4.72949 97.8398 4.8877C97.5293 5.04004 97.2627 5.26855 97.04 5.57324C96.8174 5.87793 96.6445 6.25 96.5215 6.68945C96.3984 7.12891 96.3369 7.63574 96.3369 8.20996V8.5791C96.3369 9.03027 96.3984 9.45508 96.5215 9.85352C96.6504 10.2461 96.835 10.5918 97.0752 10.8906C97.3213 11.1895 97.6172 11.4238 97.9629 11.5938C98.3145 11.7637 98.7129 11.8486 99.1582 11.8486C99.7324 11.8486 100.219 11.7314 100.617 11.4971C101.016 11.2627 101.364 10.9492 101.663 10.5566L102.647 11.3389C102.442 11.6494 102.182 11.9453 101.865 12.2266C101.549 12.5078 101.159 12.7363 100.696 12.9121C100.239 13.0879 99.6973 13.1758 99.0703 13.1758ZM107.218 12.0156L109.863 3.49023H111.604L107.789 14.4678C107.701 14.7021 107.584 14.9541 107.438 15.2236C107.297 15.499 107.115 15.7598 106.893 16.0059C106.67 16.252 106.4 16.4512 106.084 16.6035C105.773 16.7617 105.401 16.8408 104.968 16.8408C104.839 16.8408 104.675 16.8232 104.476 16.7881C104.276 16.7529 104.136 16.7236 104.054 16.7002L104.045 15.3818C104.092 15.3877 104.165 15.3936 104.265 15.3994C104.37 15.4111 104.443 15.417 104.484 15.417C104.854 15.417 105.167 15.3672 105.425 15.2676C105.683 15.1738 105.899 15.0127 106.075 14.7842C106.257 14.5615 106.412 14.2539 106.541 13.8613L107.218 12.0156ZM105.275 3.49023L107.745 10.873L108.167 12.5869L106.998 13.1846L103.5 3.49023H105.275Z" fill="#333333"/>
</svg>
